<?xml version="1.0" encoding="utf-8"?>
<!-- Generator: Adobe Illustrator 24.1.1, SVG Export Plug-In . SVG Version: 6.00 Build 0)  -->
<svg version="1.1" id="Capa_1" xmlns="http://www.w3.org/2000/svg" xmlns:xlink="http://www.w3.org/1999/xlink" x="0px" y="0px"
	 viewBox="0 0 20 20" style="enable-background:new 0 0 20 20;" xml:space="preserve">
<g>
	<path d="M10,20C10,20,9.9,20,10,20c-2.4-0.4-4.6-1.7-6.1-3.6s-2.4-4.2-2.4-6.6V3c0-0.2,0.1-0.3,0.3-0.4L9.9,0c0,0,0.1,0,0.1,0l0,0
		c0,0,0.1,0,0.1,0l8.1,2.6c0.2,0.1,0.3,0.2,0.3,0.4v6.8c0,2.4-0.9,4.8-2.4,6.6C14.6,18.3,12.4,19.5,10,20C10.1,20,10,20,10,20z
		 M2.3,3.2v6.6c0,4.6,3.2,8.5,7.7,9.4c4.5-0.9,7.7-4.9,7.7-9.4V3.2L10,0.8L2.3,3.2z"/>
	<path d="M10,17.8C10,17.8,9.9,17.8,10,17.8c-1.9-0.4-3.4-1.5-4.6-2.9c-1.1-1.4-1.8-3.2-1.8-5.1V4.6c0-0.2,0.1-0.3,0.3-0.4l5.9-1.9
		c0.1,0,0.2,0,0.2,0L16,4.2c0.2,0.1,0.3,0.2,0.3,0.4v5.2c0,1.3-0.3,2.6-0.9,3.8c-0.1,0.2-0.3,0.3-0.5,0.2c-0.2-0.1-0.3-0.3-0.2-0.5
		c0.6-1.1,0.9-2.3,0.9-3.5V4.9L10,3.1L4.5,4.9v4.9c0,3.4,2.3,6.3,5.5,7.2c0.9-0.3,1.8-0.6,2.5-1.2c0.2-0.1,0.4-0.1,0.5,0.1
		c0.1,0.2,0.1,0.4-0.1,0.5C12.1,17,11.1,17.5,10,17.8C10.1,17.8,10,17.8,10,17.8z"/>
	<path d="M9.3,12.9c-0.1,0-0.2,0-0.3-0.1l-2.6-2.6c-0.2-0.2-0.2-0.4,0-0.6l1.3-1.3C7.8,8.3,7.9,8.2,8,8.2s0.2,0,0.3,0.1l1,1l2.4-2.4
		c0.2-0.2,0.4-0.2,0.6,0l1.3,1.3c0.1,0.1,0.1,0.2,0.1,0.3s0,0.2-0.1,0.3l-4.1,4.1C9.5,12.9,9.4,12.9,9.3,12.9z M7.2,10l2,2l3.5-3.5
		L12,7.7l-2.4,2.4c-0.1,0.1-0.2,0.1-0.3,0.1c-0.1,0-0.2,0-0.3-0.1l-1-1L7.2,10z"/>
	<path d="M14,15.3c-0.1,0-0.2,0-0.3-0.1c-0.1-0.1-0.1-0.2-0.1-0.3c0-0.1,0-0.2,0.1-0.3s0.2-0.1,0.3-0.1c0.1,0,0.2,0,0.3,0.1
		c0.1,0.1,0.1,0.2,0.1,0.3c0,0.1,0,0.2-0.1,0.3C14.2,15.2,14.1,15.3,14,15.3z"/>
</g>
</svg>
